<svg id="Capa_1" data-name="Capa 1" xmlns="http://www.w3.org/2000/svg" viewBox="0 0 298.66 473.14"><defs><style>.cls-1{fill:#9fa4a7;}.cls-2{fill:#cbcac8;}.cls-3{fill:#cacbc9;}.cls-4{fill:#ffd310;}.cls-5{fill:none;stroke:#ab8425;stroke-miterlimit:10;stroke-width:3px;}.cls-6{fill:#f9e4b5;}</style></defs><title>ideas</title><path class="cls-1" d="M189,372.49s-16.52,102,45.29,98.54c0,0,77.18,18.23,65.79-98.54Z" transform="translate(-93.52 -8.14)"/><rect class="cls-2" x="76.7" y="376.31" width="144.11" height="26.2" rx="5.57"/><rect class="cls-2" x="75.71" y="411.62" width="147.39" height="26.2" rx="5.57"/><rect class="cls-3" x="107.46" y="446.94" width="82.59" height="26.2" rx="5.57"/><path class="cls-4" d="M189,372.49s-10.25,5.69-12.53-19.94c-1.36-15.26-10.83-30.9-18.4-43.66-10-16.8-22.67-31.34-33.31-47.61C82,195.84,80.45,109.62,137,51.61,174.55,13.12,233-.95,284.37,14,334,28.46,373.32,69.63,387,119.3c11.43,41.43,3,85.08-16.8,122.51-18,33.92-46,62.43-58.26,99.3a74.6,74.6,0,0,0-4,20.17c-.21,3.83-.58,9.88-5.13,11.08a7.17,7.17,0,0,1-2.73.13" transform="translate(-93.52 -8.14)"/><path class="cls-5" d="M222.06,372.49V228.09c0-15-19.8-27-31.4-15a16.72,16.72,0,0,0-4.11,15.36c3.79,15.1,20.11,11.92,31.8,11.92h24.5" transform="translate(-93.52 -8.14)"/><path class="cls-5" d="M263.07,372.49V228.09c0-15,19.81-27,31.4-15a16.72,16.72,0,0,1,4.11,15.36c-3.79,15.1-20.1,11.92-31.8,11.92h-24.5" transform="translate(-93.52 -8.14)"/><path class="cls-6" d="M214.65,49.8c-1.11.26-2.22.58-3.32.91-3,.88-5.94,1.9-8.86,3Q196,56.16,189.82,59.2a134.47,134.47,0,0,0-14.67,8.38,115.24,115.24,0,0,0-15,11.64,97,97,0,0,0-13.45,15.32,85.69,85.69,0,0,0-10.21,19.38,88.93,88.93,0,0,0-5.19,23.84,112.57,112.57,0,0,0,1.56,28.68A167.54,167.54,0,0,0,143,200.37q1.41,3.47,2.94,6.88c1.3,2.92,3.43,5.87,3.05,9.22a7.61,7.61,0,0,1-5.63,6.32,7.93,7.93,0,0,1-5.5-.59c-1.9-.95-2.66-2.7-3.59-4.51-1.33-2.59-2.58-5.22-3.77-7.87q-2.67-6-4.91-12.12c-1.87-5.1-3.53-10.29-4.94-15.53A167.6,167.6,0,0,1,116.8,164a139.56,139.56,0,0,1-1.62-19.9,114.48,114.48,0,0,1,1.73-20.83,97.94,97.94,0,0,1,6.19-21,93.67,93.67,0,0,1,11.79-20.23,106.2,106.2,0,0,1,18.5-18.68,141.73,141.73,0,0,1,26.34-16.31c5.37-2.6,10.87-4.92,16.46-7q4.53-1.68,9.12-3.17c3-1,6.39-2.54,9.49-2.81a6.56,6.56,0,0,1,5.84,3.27C223.56,42.33,219.94,48.57,214.65,49.8Z" transform="translate(-93.52 -8.14)"/></svg>