<svg id="Capa_1" data-name="Capa 1" xmlns="http://www.w3.org/2000/svg" viewBox="0 0 500 500"><defs><style>.cls-1{fill:#ea5653;}.cls-1,.cls-2,.cls-3,.cls-4{stroke:#010101;stroke-miterlimit:10;stroke-width:0.25px;}.cls-2{fill:#fccf98;}.cls-3{fill:#fccd8b;}.cls-4{fill:#2b373d;}.cls-5{fill:#f1894e;}.cls-6{fill:#cfeaf5;}.cls-7{fill:#fccd8c;}</style></defs><title>investigacion</title><path class="cls-1" d="M308.83,241.05s-39.25-5-56.56,10.14c0,0-13,2.46-78.32,108.32,0,0-22.06,28.2-40.45,12,0,0-40.89-29.43-42.19-82,0,0-19.69-4.11-35.05,10.17,0,0,13.84,161,94.33,175.24,0,0,45.43,13,79.62-51.06,0,0,17.31-38.36,26.82-40.38,0,0,18.18,5.77,36.78,116.54H397.66s30.6-93.79,34.19-95.89S350.5,250.33,350.5,250.33Z"/><path class="cls-2" d="M315,193.56s.69,38.16-11.65,47l20.56,1.73,4.84-58.73Z"/><path class="cls-3" d="M226.46,100.47s-4,31.44,1.44,53.65l11.54-1.44c.1,0,1.34,3.53,1.43,3.74q1.95,4.79,4.31,9.38c4.42,8.64,9.87,17,17,23.64,11.2,10.38,27,12.89,41.42,8.66a75.82,75.82,0,0,0,19-8.89C348.48,172.87,308.53,140,308.53,140s13.41-33.61-8.66-39.52S233.52,38,226.46,100.47Z"/><path class="cls-4" d="M226.46,100.47c-.07.12-6.19-5.18-6.52-5.51A44.46,44.46,0,0,1,209.25,77.4c-6.1-19.37,2.92-42.46,19.84-53.33,25.23-16.19,52.69-.41,77.84,7,15.93,4.68,32,1.69,48.13,3.87a102.18,102.18,0,0,1,27.08,7.47,91.38,91.38,0,0,1,15.35,8.47c5.14,3.52,9.16,8.62,14.17,12.1,0,0,28.27,19.61,26,92.88,0,0-6.93,57.47,34,100,24.14,25.06,37.54,63,21,95.74-9.11,18.11-24.91,31.3-41.86,41.81-8.13,5-17.23,8.94-24.81,14.62a115.92,115.92,0,0,0-23.73,23.45c-6,8.06-11.49,18.66-21.57,22.1-10.23,3.49-21.05.31-30.24-4.62,7.07.13,15.21-1.7,18.08-9,3.18-8.13-2.87-15.81-9.27-20.17-12.6-8.62-29.29-12.7-44-15.82-22.59-4.79-46.19-17.7-57.93-38.15-18.67-32.55-2-68.14,21.94-92.23,26-26.14,58.2-56.78,38.87-96.94,0,0-6.92-20.19-20.19-31.73,0,0,6.34-23.08-6.93-30,0,0-9.23-.58-12.11,8.08,0,0-34-7.5-43.27-44.43C235.69,78.54,228.77,95.85,226.46,100.47Z"/><path class="cls-5" d="M88.93,219S-13.26,278.74,1.45,304.13c0,0,19.61,17.74,93.46-79.91A73.06,73.06,0,0,1,88.93,219Z"/><path class="cls-5" d="M139.05,111.43c-37,0-66.93,29.06-66.93,64.9s30,64.91,66.93,64.91S206,212.18,206,176.33,176,111.43,139.05,111.43Zm0,124.33a59.43,59.43,0,1,1,59.42-59.43A59.43,59.43,0,0,1,139.05,235.76Z"/><path class="cls-6" d="M100.54,142.73s-24.15,28.41-3.61,58.7c0,0-1.3-38.51,16.45-54.09Z"/><path class="cls-6" d="M105.15,137.17s16.45-10.81,30.94-11.68c0,0-19.47,15.15-20.12,18.61Z"/><path class="cls-7" d="M60.77,296c.33-.24-3.64-5.17-3.92-5.46-2.2-2.29-5-4.1-7.39-6.26-11.11-10.17-19.91-23.45-21.33-38.75-.25-2.73,3-6.36,5.05-7.71a7,7,0,0,0,1.61-1.24,5.89,5.89,0,0,0,.78-1.44c1.7-4,4-7.47,8-9.32A18.67,18.67,0,0,1,53,224.42a5.71,5.71,0,0,0,1.43,0c1.62-.29,2.62-2.09,3.83-3.07A9,9,0,0,1,62.75,219c4-.47,7.65,3.25,9.8,6.09,10.83,14.26,22.15,33.15,14.72,51.67,0,0-3.91,6.59-1.45,12.24C85.82,289,72.06,287.88,60.77,296Z"/></svg>