<svg id="Capa_1" data-name="Capa 1" xmlns="http://www.w3.org/2000/svg" viewBox="0 0 446.75 466.08"><defs><style>.cls-1{fill:#fac39b;}.cls-2{fill:#5d86c4;}.cls-3{fill:#ea5557;}.cls-4{fill:#62c6ed;}.cls-5{fill:#fdc940;}.cls-6{fill:#77b82b;}.cls-7{fill:#af71ad;}.cls-8{fill:#ea5657;}.cls-9{fill:#e7b58a;}.cls-10{fill:#4c5d6f;}.cls-11{fill:#77b82c;}.cls-12{fill:#ea5758;}.cls-13{fill:#fcc941;}.cls-14{fill:#e83d3d;}.cls-15{fill:#ea5556;}.cls-16{fill:#62c6ec;}.cls-17{fill:#4c5e6f;}.cls-18{fill:#fbfaf7;}.cls-19{fill:#4b70b5;}.cls-20{fill:#fbfafa;}.cls-21{fill:#fbf6f5;}.cls-22{fill:#fffefe;}</style></defs><title>planes</title><path class="cls-1" d="M376.94,220.06c1.3-1.71,1.61-3.93,3-5.61,2.8-3.28,3.86-3.55,7.59-1.33,5.54,3.3,11.16,6.54,16,10.81,6.09,5.37,13.52,7.79,20.95,10.27,8.27,2.75,16.6,5.3,24.81,8.21,3.73,1.33,4.3,5.33,5.22,8.46A256.69,256.69,0,0,1,462,282.92c1.79,11.16,6.57,21.33,10.19,31.88,1.58,4.63,1.79,8.68-.41,13.16q-10.86,22.14-23.16,43.5c-5.67,9.87-10.55,20.24-12,31.8-1.58,1.9-4,2-6.07,2.59q-31.69,8.31-63.42,16.5c-1.2.3-2.46,1-3.65-.1-3.6-12.83-7.44-25.62-6.6-39.21.46-7.55,2.62-14.78,4-22.17,1.89-10.44,4.26-20.8,5.86-31.3.79-5.2,1.81-10.37,2.09-15.64.05-.89.41-1.73-.85-2,1.56-8.72-1.37-16.73-3.91-24.82q-1.78-5.69-3.3-11.45a153.18,153.18,0,0,1-5.82-26c-.41-3.38.49-6.6.67-9.91,1.15-7.14,5.18-11.75,12.25-13.35,8-1.82,14.77,1.65,19,9.35,4.42,8,6.58,16.84,8.51,25.7,1.22,5.59,2.35,11.19,3.23,16.84,1.13,8.1,2.08,16.23,4.1,24.18,1.21,4.74,3.62,9,6,13.2,2.5,3.84,3.44,4,6.61.85Q426,305.82,436.65,295c3-3,3.07-4.59.81-7.88-3.92-4.87-8.45-9.19-12.53-13.9-.71-.81-1.55-1.53-1.62-2.71-.05-2.25,1.74-4.66.59-6.57s-3.93-1.94-6-2.88c-2.53-1.16-4.78-2.88-7.43-3.79-4.88-4.11-8.81-9.15-13.14-13.78-6.27-6.69-12.56-13.35-18.56-20.28C378,222.31,376.69,221.64,376.94,220.06Z" transform="translate(-26.63 -20.7)"/><path class="cls-2" d="M363.44,422.25c11.16-2.84,22.33-5.63,33.47-8.53,13.24-3.44,26.45-7,39.67-10.46,4-1,8-1.9,11.89-3,2-.57,2.63,0,3,1.93,2.77,15.37,5.62,30.72,8.44,46.08,1.15,6.25,2.16,12.53,3.49,18.74.46,2.16,0,2.92-2.12,3.17q-21.67,2.64-43.32,5.36-21.81,2.72-43.61,5.49c-3.63.46-7.27.86-10.88,1.45-2.29.37-2.12-1.3-2.37-2.56-2.07-10.57-4.09-21.16-6.13-31.74-1.23-6.34-2.4-12.7-3.74-19-.51-2.42-.21-3.77,2.59-4.28C357.05,424.25,360.23,423.14,363.44,422.25Z" transform="translate(-26.63 -20.7)"/><path class="cls-3" d="M156.67,317.33c-14.5-.11-28.59-2.15-41.64-9-17.67-9.28-27-24.41-29.9-43.65-3.57-24,4.67-44.44,20.17-62.3,12.32-14.21,27.79-24.1,44.92-31.56,2-.89,3-.22,3.66,1.63,1.87,5.21,1,7.35-4,9.56-20.23,9-37.61,21.57-50,40.29-6.08,9.21-10.53,19.16-11.44,30.28-1.75,21.24,9.81,39.29,30.19,47.61,15.89,6.49,32.46,7.69,49.32,6.05,23.11-2.25,44.51-9.41,63.46-23.05,12.7-9.13,22.72-20.46,27.63-35.72,6.78-21.05-2.94-41.55-23.57-49.58-17.71-6.91-35.76-6.22-53.86-2.19a123.74,123.74,0,0,0-55.91,28.51c-2.4,2.12-3.22,1.89-4.17-1.1-1.26-4-.59-6.91,3-9.88C149,192.81,177,182.08,209,182.49c11.59.15,22.79,2.47,32.91,8.43,12.9,7.59,19.74,19.41,22.11,33.83,4.39,26.72-5.29,48.11-25.87,64.83-17,13.84-36.84,21.78-58.3,25.72A115.69,115.69,0,0,1,156.67,317.33Z" transform="translate(-26.63 -20.7)"/><path class="cls-4" d="M93.36,29.35c11.88-.14,22.73,2.7,31,11.77,7,7.6,9.18,16.88,8.44,27-1.86,25.59-25.66,45.23-48.32,49.5-11.82,2.22-23.32,1.7-34.59-2.81-13.29-5.31-22.67-19.1-23.25-33.44C26.06,66.41,31.84,54,41,42.9a72.1,72.1,0,0,1,23.43-19c.9-.45,1.91-1.51,2.85-.29.8,1,0,2.07-.59,3-1.52,2.2-3.78,3.42-6,4.74-16.44,9.57-25.69,23.7-26,42.91-.22,14.72,10.64,29.22,25.42,34,17.41,5.67,34.18,3.82,49.3-6.78,12.36-8.66,16.55-21.36,15.1-36-1.56-15.76-14.93-25.49-29.07-27.74A54.78,54.78,0,0,0,79,37.56c-.76.1-1.58.33-2.08-.4s-.07-1.67.34-2.42c2.16-3.94,5.74-5.29,10-5.38C89.25,29.31,91.31,29.35,93.36,29.35Z" transform="translate(-26.63 -20.7)"/><path class="cls-5" d="M313.67,427.7c-.51,29.55-19.35,53.08-43.64,58.29-16.43,3.52-35.38-4.91-43.47-19.62-11.13-20.23-9.76-40.76-1-61.35.37-.9.81-2.29,2.19-2s.95,1.8,1,2.76c.13,2-.7,3.8-1.44,5.59-7.4,18-5.77,35.06,6.34,50.52,11.15,14.23,31.7,18.49,48,10.65,10.74-5.16,19.4-12.41,24.54-23.35,6.22-13.22,3-29.53-8-41.24-9.56-10.21-21.23-14.53-35.06-12.08a32.15,32.15,0,0,0-18,10.1c-.57.61-1,1.65-2,1.31s-1-1.49-1-2.47c-.13-5.26,3.26-8.57,6.84-11.51,12.69-10.42,32.24-10.88,45.53-1.16S313.45,415.41,313.67,427.7Z" transform="translate(-26.63 -20.7)"/><path class="cls-6" d="M282.87,74.17c.23-18.06,6.53-33.81,18.37-47.38.57-.65,1-1.91,2.28-1.26,1.08.57.81,1.72.77,2.63a12.67,12.67,0,0,1-3.76,8,49.74,49.74,0,0,0-12.41,25.15c-4.82,26.64,15.34,49.23,42.3,47.19,16.15-1.23,28.78-9,37.83-22.29,6.07-8.92,5.77-18.91,2.63-28.64-4.73-14.72-14.47-24.3-30.33-26.41a30.44,30.44,0,0,0-19.91,4c-2.56,1.52-3,.45-2.84-1.84.2-3.66,1.41-6.53,4.93-8.42,17-9.17,38.59-2.8,48.31,14.41,14.07,24.94,4.34,58.48-20.86,72.23-11.8,6.44-24.11,9.18-37.38,5.83-16.14-4.07-28.71-19.8-29.91-37.36C282.76,78.06,282.87,76.11,282.87,74.17Z" transform="translate(-26.63 -20.7)"/><path class="cls-7" d="M126.16,430.16a53.08,53.08,0,0,1-56.8,52.95c-13.35-.94-25-5.85-33.13-17.09-7.86-10.85-9.48-23.11-6.51-35.78,4.64-19.76,16.43-34.39,33.88-44.56,1-.56,2.11-1.71,3.16-.56.83.9.3,2.25-.07,3.39-1,3.06-3.13,4.91-5.93,6.45-11.13,6.14-19.5,14.88-24.19,26.83C28.65,442,40.73,464.74,61.2,471.32c14.61,4.7,29,3.12,42.45-4.69C118.92,457.78,123,441,118.9,425.56c-4-14.91-18.26-27.58-37.69-25.19-2.93.36-3.47-.36-2.58-3,1.63-4.93,3.68-6.57,8.92-6.75C110.23,389.82,126.32,406.31,126.16,430.16Z" transform="translate(-26.63 -20.7)"/><path class="cls-8" d="M376.94,220.06q13.1,14.24,26.18,28.47c2.54,2.76,5,5.58,7.53,8.37,3.81,2.21,6.45,5.68,9.29,8.88,1.32,1.48,3.11,2.73,3.67,4.83l14.46,16.16a2.46,2.46,0,0,1-1,2.23q-6.51,6.62-13.13,13.13a2.67,2.67,0,0,1-2.23,1c-3.77-3.37-7-7.24-10.66-10.77S404,285.45,400.41,282a12.22,12.22,0,0,1-2.63-3.62c-1.76-8.32-3.3-16.69-5.32-24.95-1.88-7.64-4.13-15.18-9.44-21.39-4.28-5-9.58-6.46-15.7-4.74-5.43,1.52-9.28,4.88-10.5,10.69a8.18,8.18,0,0,1-.61,1.44,48.32,48.32,0,0,1-6.8.33c-1.19-1-.17-1.8.4-2.39,6.62-6.87,13.47-13.5,20.37-20.1a1.36,1.36,0,0,1,1.18-.36c.83-.93,1.61-1.2,2.56-.06S375.93,219,376.94,220.06Z" transform="translate(-26.63 -20.7)"/><path class="cls-9" d="M361.53,275.72c2.34,7.25,4.58,14.54,6.59,21.86,1.24,4.51,2.66,9.64-.23,14.36-3.1,1.92-6.18,3.89-9.31,5.76-3.74,2.23-7.67,1.89-11.52.42a8.6,8.6,0,0,1-5-10.11c.47-1.58,2-2.17,3.15-3,1.52-1.14,3.14-2.16,5.43-3.7-3.79-.17-6.62-.81-9.12-2.61a10.11,10.11,0,0,1-2.84-13c.64-1.11,1.58-1.27,2.6-1.63,1.47-.51,3.2-.4,4.65-1.94-3.68-1.08-7-2.4-9.35-5.4-2.05-2.63-3-5.38-1.89-8.69.87-2.58,1.93-4.55,5.18-4.86,1.79-.17,3.89-.3,5.46-1.63,1.57-.25,2.3,1,3.14,1.88C352.61,267.75,357.38,271.4,361.53,275.72Z" transform="translate(-26.63 -20.7)"/><path class="cls-4" d="M92.58,138.54A203.53,203.53,0,0,0,83.75,157c-.46,1.14-.65,3.06-2,3-1.67-.07-2-2-2.45-3.41a9.94,9.94,0,0,1,.39-7.23C83,141.28,87.28,133.65,91,125.75a3.33,3.33,0,0,1,5.15-1.34c5.59,4,12.28,5.54,18.25,8.64,1.8.94,3.73,1.63,5.59,2.47,4.48,2,5.72,4.19,5.3,8.95-.18,2-.88,2.72-2.93,1.82-5.22-2.27-10.49-4.42-15.75-6.61l-3.36-1.37c1.51,5.17,3.89,9.47,5.82,13.94,2.65,6.13,5.43,12.21,8.14,18.32,1.74,3.9.89,7-2.49,9.59-1.78,1.36-3,1.3-4-.95-2.83-6.51-5.77-13-8.67-19.46C99,152.9,95.94,146,92.58,138.54Z" transform="translate(-26.63 -20.7)"/><path class="cls-10" d="M371.36,216.92q-9.87,9.86-19.74,19.71c-.9.9-1.72,1.88-2.57,2.82-2.86,4.37-6.88,7.63-10.68,11.1a1,1,0,0,1-1.21,0c-5.59-6.38-6.14-14.23-1.2-20.88,1.23-1.65.92-2.43-.39-3.64-2.13-2-4-4.25-6.16-6.13-1.73-1.48-2-2.75-.38-4.35a36.5,36.5,0,0,1,7.57-7.27c1.3-1.46,2.41-1.56,3.84.06,2.19,2.5,4.66,4.75,7,7.15.86.91,1.36,1.08,2.56.21C357.15,210.55,364.66,211,371.36,216.92Z" transform="translate(-26.63 -20.7)"/><path class="cls-7" d="M84.4,361.08c2.77-6.15,5.34-11.8,7.87-17.48,3.78-8.46,7.51-16.94,11.3-25.4.42-.94.6-2.47,1.84-2.41s1.45,1.6,1.84,2.7c1.19,3.34.1,6.35-1.25,9.34q-6.66,14.75-13.27,29.5c-.42.94-.78,1.92-1.42,3.49l21.31-9.07c2.69-1.14,3.56-.6,3.46,2.3-.13,3.86-1.11,6.82-5.47,8.41-7.69,2.81-15.06,6.47-22.67,9.5-1.55.62-2.35,3-4.35,2.1s-2.37-3.26-3.26-5.05c-3.42-6.84-6.83-13.69-9.81-20.74a9.89,9.89,0,0,1,.18-8.44c.4-.87.78-1.91,2-1.79,1.06.1,1.15,1.12,1.47,1.9C77.15,347,80.52,353.79,84.4,361.08Z" transform="translate(-26.63 -20.7)"/><path class="cls-5" d="M254,364.11c-1.94-6-3.64-11.41-5.42-16.79-3.8-11.44-7.65-22.86-11.43-34.3a11.92,11.92,0,0,1-.36-7c.27-1,.39-2.13,1.52-2.18s1.47,1.12,1.77,2c1.79,5.41,3.55,10.84,5.34,16.25q7,21,13.94,42a9.82,9.82,0,0,0,.75,1.25c2.26-5.56,4.4-10.8,6.53-16.05.65-1.6,1.26-3.21,1.94-4.79.54-1.27,1.11-3.12,2.74-2.55,1.85.64,1.13,2.57.65,3.94-1,2.95-2.24,5.83-3.4,8.74q-3.23,8.1-6.47,16.19a12.32,12.32,0,0,0-.62,1.83c-1.14,5.56-1.1,5.49-6.21,3.37-8-3.31-16-6.49-23.92-9.77-1.53-.63-3.7-.91-3.32-3.28.45-2.73.78-5.65,3.41-7.39.95-.63,1.87.18,2.74.52C240.6,358.67,247,361.26,254,364.11Z" transform="translate(-26.63 -20.7)"/><path class="cls-7" d="M88.82,440.43c-4.8-2-9-1.15-13.15-1.39-1.67-.1-4.33,1.69-4.91-1.68-.79-4.57.49-7.65,3.53-8.67a35.85,35.85,0,0,0,9.94-4.57,15,15,0,0,0-12.56,3.15c-.83.64-1.39,2.43-2.8,1.57-1.19-.74-.93-2.36-1-3.6-.16-8.91,14-14.32,19.68-10.85A8.68,8.68,0,0,1,91.43,423a33.2,33.2,0,0,1-1.32,4.65c-.27.81-.85,1.53.09,2.3,4.88,4,3.71,9.05,2.18,14s-5.46,7.83-10.29,9.47c-3.35,1.14-6.83,1-10.26.7-6.2-.48-7.89-3.22-5.81-9.05.75-2.11,1.62-2.91,4.27-2.16C76.41,444.64,82.58,444.73,88.82,440.43Z" transform="translate(-26.63 -20.7)"/><path class="cls-11" d="M288.1,133c-10.64,13.08-20.62,25.37-30.62,37.65q-3.77,4.64-7.62,9.21c-.53.63-1.13,1.56-2.11,1.14-1.19-.51-.72-1.65-.59-2.56.43-2.83,2.41-4.78,4.09-6.85q15.76-19.49,31.63-38.87a11.61,11.61,0,0,0,.7-1.21c-7.42,1.05-14.43,2-21.43,3.05-4.67.68-5.36,0-3.56-4.37,1.13-2.72,2.62-4.75,6.25-5.14,9.32-1,18.58-2.58,27.84-4,1.83-.29,2.15.49,2,1.89-1.14,9-1.07,18.08-1.69,27.12a11.7,11.7,0,0,1-2.82,6.75c-.61.75-1.34,1.67-2.39,1.33-1.25-.39-.76-1.61-.71-2.53q.51-9.85,1-19.72C288.13,135.26,288.1,134.64,288.1,133Z" transform="translate(-26.63 -20.7)"/><path class="cls-11" d="M329.78,75.86c2.25,0,4.28.12,6.3,0s2.85.42,2.8,2.65c-.15,5.75-1.71,7.43-7.38,7.4-4.86,0-9.72-.13-14.57,0-2.65.08-3-1-2.65-3.33.62-4.2,2.94-6.93,6.28-9.27a95.28,95.28,0,0,0,12.5-10.73c2-2,1.67-2.93-1-3.71-2.95-.88-5.49.4-8,1.69a30.7,30.7,0,0,0-3.19,2.2c-1.7,1.16-2.22.71-2.5-1.36-1.11-8.37,11.21-14.61,16.7-12.9,3.76,1.17,5.83,6.23,4.52,11.22A27.93,27.93,0,0,1,332,72.57C331.17,73.38,330.05,74,329.78,75.86Z" transform="translate(-26.63 -20.7)"/><path class="cls-8" d="M210.63,248.9c-1.09,8.31-2.3,16.3-2.42,24.38a33.86,33.86,0,0,1-.53,4.81c-.14.87-.59,1.85-1.56,1.8-1.15-.06-1.54-1.13-1.55-2.15,0-3.13-.11-6.27.07-9.39.58-10.24,1.88-20.43,1.89-30.7a6.23,6.23,0,0,1,.22-1.6c.32-1.2.16-2.94,1.75-3.1,1.42-.15,1.63,1.52,2.14,2.52,4.41,8.61,9.52,16.82,14.85,25.9,2.13-9.54,3.07-18.3,1.95-27.22-.31-2.49-.51-4.94.46-7.33.24-.57.48-1.31,1.27-1.26s1.06.68,1.23,1.31a36.64,36.64,0,0,1,1.2,8.31c.53,12.51-1.29,24.75-4.13,36.88-.23,1-.42,2.11-1.48,2.28-1.24.18-1.36-1.19-1.81-2Q217.37,260.65,210.63,248.9Z" transform="translate(-26.63 -20.7)"/><path class="cls-3" d="M125.22,232.33c10.63,0,14,4.83,10.67,14.91-2.62,7.86-8.23,11.67-16.16,12.1-2.93.15-3.93,1.26-4.3,3.9-.57,4.16-1.28,8.31-2.15,12.41-.39,1.79-.83,4.72-2.93,4.33s-1-3.08-.74-4.79c.73-4.46,1.58-8.91,2.35-13.36.14-.76.83-2-.51-2.07-2.85-.24-2.23-2.27-2-3.82.34-2.38.52-5.28,3.31-6.07a2.55,2.55,0,0,0,2.22-2.54c.35-2.34.92-4.65,1.22-7C117.09,233.38,118.22,232.34,125.22,232.33Z" transform="translate(-26.63 -20.7)"/><path class="cls-12" d="M174.49,257.59c5.52-6.23,5.51-14.68,8.76-21.82.31-.68.49-1.42.77-2.13.36-.87.52-2.07,1.72-2.06s1.3,1.27,1.57,2.15c1.77,5.68,2.91,11.5,4.15,17.31a147,147,0,0,0,5.14,19.67,10.93,10.93,0,0,1,.34,6.69c-.24.89-.29,2.11-1.6,2.11-1.07,0-1.28-1.05-1.52-1.84-1-3.2-2-6.37-2.8-9.62-.36-1.55-1-2.19-2.52-2.26-11.81-.53-8.91-2.17-11.74,7.92-.46,1.66-.79,3.36-1.29,5-.26.87-.26,2.15-1.49,2.23-1.53.1-1.31-1.43-1.77-2.31a4.81,4.81,0,0,1-.25-.94,2.64,2.64,0,0,1,0-3.23l.14-1.11c.07-4,1.94-7.82,1.12-11.93A4.93,4.93,0,0,1,174.49,257.59Z" transform="translate(-26.63 -20.7)"/><path class="cls-13" d="M258,444.49c-8.78-.42-9.28,1.73-5.87-8.09A109.16,109.16,0,0,1,258,422.8a14.94,14.94,0,0,1,4.55-4.93c.91-.71,2-1.12,3-.36s0,1.78-.38,2.57a133.18,133.18,0,0,0-6,14c-.63,1.69-.87,2.55,1.55,2.81,6.54.7,6.5.83,8.08-5.57.79-3.24,1.67-6.45,2.61-9.65.35-1.21.8-3,2.2-2.78,1.68.27,1.44,2.17,1.39,3.55-.15,3.94-2,7.47-3,11.2-.63,2.39-.51,3.48,2.27,3.12.91-.12,2.12-.39,2.62.66s-.51,1.77-.94,2.6a7.16,7.16,0,0,1-4.21,3.84c-2.4.59-2.8,2.14-3.34,4.06-1,3.51-2.13,7-3.38,10.42-.32.89-.74,2.37-2.06,2.06-1.15-.27-1.2-1.59-1.31-2.71-.37-3.87,1.7-7.1,2.86-10.51.87-2.57,0-2.77-2.05-2.66C260.88,444.56,259.26,444.49,258,444.49Z" transform="translate(-26.63 -20.7)"/><path class="cls-14" d="M337.16,250.59l11.89-11.14c2.39-.49,4.77-1.44,7.16,0-1.65,12.6,2.11,24.4,5.32,36.28-1.3.82-1.64-.56-2.22-1.1-4.7-4.32-9.33-8.71-14-13.08-2.68-2.55-5.29-5.18-8.09-7.6C335.78,252.67,336,251.73,337.16,250.59Z" transform="translate(-26.63 -20.7)"/><path class="cls-15" d="M153.23,270.64c2.48.86,5.06.57,7.6.65,4.44.14,4.95.79,3.87,5.2-.15.62-.28,1.24-.41,1.86-1.25,2.6-3.16,3.24-6.06,2.86-4.69-.61-9.46-.69-14.2-.88-2.15-.09-2.91-1.11-2.49-3.11,2.68-12.8,3.54-25.82,4.66-38.81.21-2.39,1-6,3.48-5.79s.95,3.65.84,5.56A257.07,257.07,0,0,1,147.43,266C146.66,270.52,147,270.83,153.23,270.64Z" transform="translate(-26.63 -20.7)"/><path class="cls-16" d="M79.65,64.12c-3.73,2.16-6.87,4-10,5.79-2.49,1.41-3.19,1-3.24-1.89-.07-3.69.58-6.88,4.49-8.79S78.26,54.85,82,52.66c2.75-1.63,3-1.39,3.2,1.92.17,3.62-1,7-1.56,10.51-1.28,7.84-2.8,15.64-4.33,23.44-.41,2.09-.31,5.61-2.92,5.22-2.19-.32-1.14-3.76-.86-5.69C76.46,81.48,77.78,75,79,68.4,79.18,67.15,79.37,65.89,79.65,64.12Z" transform="translate(-26.63 -20.7)"/><path class="cls-8" d="M336.6,208.32c-2.31,2.64-4.57,5.34-7.57,7.27-6.82-6.26-6.79-6.25-2.33-14.62.85-1.6,1.31-1.51,2.44-.26C331.53,203.34,334.1,205.79,336.6,208.32Z" transform="translate(-26.63 -20.7)"/><path class="cls-14" d="M397.78,278.39c8.06,8.06,16.72,15.52,23.89,24.45a1,1,0,0,1-.12,1.42,135.6,135.6,0,0,1-12.72,12.19c-.15.12-.39,0-.59-.09-5.1-7.07-7.33-15.18-8.55-23.65C399,287.94,398.41,283.16,397.78,278.39Z" transform="translate(-26.63 -20.7)"/><path class="cls-17" d="M408.24,316.36q6.72-6.76,13.43-13.52l16.4-16.07c2.45,3.06,2.47,5.48-.23,8.19q-11.74,11.75-23.6,23.36C411.51,321,410.7,320.66,408.24,316.36Z" transform="translate(-26.63 -20.7)"/><path class="cls-18" d="M423.61,270.61l-13-13.71c2-.88,3,1.19,4.38,1.84,2.32,1.1,4.61,2.54,7.06,3.07,3.19.7,3.7,2.28,2.68,4.87C424.26,268,424.73,269.53,423.61,270.61Z" transform="translate(-26.63 -20.7)"/><path class="cls-19" d="M377.6,467.51c-.06,4.05-2.81,6.64-7.09,6.68-3.56,0-7.21-3.51-7.16-6.95,0-3.72,3.75-7.26,7.65-7.31C374.64,459.89,377.66,463.36,377.6,467.51Z" transform="translate(-26.63 -20.7)"/><path class="cls-19" d="M360.74,449.31c.06-3.33,3.65-6.87,6.89-6.81,3.42.07,7.32,3.81,7.33,7a7.83,7.83,0,0,1-8.25,7.59C364.12,457.07,360.68,452.57,360.74,449.31Z" transform="translate(-26.63 -20.7)"/><path class="cls-20" d="M121,249.76c-1.79.39-2.34-.44-2-2.47.86-4.95,1-5.15,6.18-4.62a11.78,11.78,0,0,1,2.22.33c1.59.5,4.14.56,4.31,2.14.2,1.85-2.21,2.63-3.84,3.29A20.19,20.19,0,0,1,121,249.76Z" transform="translate(-26.63 -20.7)"/><path class="cls-21" d="M185.49,244.14c.79,3.07,1.45,5.22,1.85,7.42.2,1.08,1.27,2.5.19,3.26s-2.93.37-4.39.17-.74-1.34-.53-2.05C183.43,250.27,184.34,247.64,185.49,244.14Z" transform="translate(-26.63 -20.7)"/><path class="cls-22" d="M165.12,265.43V250.28c1.33,5.05,1.1,10.1.92,15.14Z" transform="translate(-26.63 -20.7)"/></svg>