<svg id="Capa_1" data-name="Capa 1" xmlns="http://www.w3.org/2000/svg" viewBox="0 0 500 500"><defs><style>.cls-1{fill:#15676b;}</style></defs><title>sirena</title><path class="cls-1" d="M238.36,193c-1.72,10.29-2.65,20.79-5.36,30.81-4,15-16.81,18.17-27.08,7.16-20.67-22.17-39.52-45.76-53.53-72.81-6.81-13.17-7.19-27.4-4.84-41.66.52-3.14,3-6.31,5.36-8.7,5.58-5.66,9.35-4.89,12.06,2.62,4.71,13,11.13,25.77,7.69,40.38a6.42,6.42,0,0,0,.48,4.19c7.33,13.46,19.15,22.22,32.52,32.57-1.42-15.89-3-29.15-3.68-42.46-.85-17.33-2.18-35.21,21-44.14-4.87-3.35-7.62-6.45-10.9-7.19-4.39-1-10.52,1.6-13.45-.6s-2.87-8.42-4.11-12.87a8.51,8.51,0,0,0-.51-1.67c-2.67-5.06-4.79-10,1.19-14.47,1-.72,1.13-3.25.82-4.76-6.31-30.2,3.21-44.77,33-50.23.86-.15,1.71-.33,2.58-.47,35.91-6.07,60.88,12.9,63.17,49,.65,10.27-1.11,20.81-2.74,31.07-1,6.06.57,9.63,6.2,11.32,11.26,3.39,17.64,11.53,22.36,21.7C325,131.43,330,140.9,335,150.94l15.08-4.87,1.4,1.78-13.17,9.44c2.58,4.4,3.94,7.34,5.85,9.86A417.23,417.23,0,0,1,389,240.6c.74,1.56,1.56,3.44,2.9,4.28,2.53,1.59,5.46,3.53,8.24,3.55,12.08.08,23,3.23,34.26,9.75-2.42,2.22-3.71,4.46-5.29,4.69-13.91,2-27.86,3.86-41.85,5.22-1.9.18-4.68-2.19-6-4.1-9.6-13.44-18.34-27.54-28.52-40.52-12.13-15.47-25.42-30-38.48-45.31-1.22,1.67-2,2.29-2.16,3-3.14,19.12-4.6,38.06,4.62,56.25a85.09,85.09,0,0,1,6.95,17.82c2.12,8.69,6.46,11.21,15.68,11.39,28.24.55,50.63,12,64.71,40.82-16.35-11-32.13-13.48-49.15-10.1-26,5.16-45.11,22.09-49.48,44.33-2.45,12.46,1.32,23.2,7.34,34,10.14,18.2,21.61,36.13,28.37,55.62,11.6,33.4-14.19,64.05-52.19,62.12,3-2.23,5-3.44,6.67-5,15.09-14.09,18.41-28.65,11-48-10.73-28.2-40.24-47.64-72.52-48.57-22-.63-42.42,5.79-62.81,12.8-17.51,6-35.29,9.18-54,6.37-39.72-6-60.2-43-43.65-79.4,12.92-28.41,35.86-43.68,65.23-51.62,21.56-5.82,42.89-12.6,64-19.87,28.32-9.76,40.49-31.44,41.65-60.17.11-2.78-2.46-5.66-3.78-8.5Zm-33.05,91.51c-4.74-3.34-5.07-8.7-1.5-13.09,4.89-6,9.74-2.59,13.37.62l10.64-7.38c-.19-2.38-.42-5.23-.53-6.53-21.47,7.58-43.12,15.48-64.95,22.83-12.37,4.16-25.27,6.78-37.53,11.21-24.89,9-41.06,27-49.07,51.9-8.75,27.13,13,58.33,41.6,59.32,24.39.85,46.37-6.83,64.94-23.13.53-.46.75-1.28,1.66-2.94-23.14,8.19-46.33,18.79-64.06-7-10.8-15.75-8.47-40.17,3.8-55-2.05,6.83-4,13.3-6.45,21.52,22.86-11.64,43.78-2.66,65.48,1-.27-2.79-.48-5-.47-4.8-4.45-2.43-8.36-3.47-10.16-6-1-1.38,1.62-5.3,2.61-8.07l11.75,5c-.06.1,1.88-1.74,1.75-3.41-.85-11,.43-12.76,9.47-13.36,2-4.11,2.75-8.72,5.45-10.57,2.06-1.41,6.52.68,10.14,1.25-.27-8.18,6.21-10,14.74-11.32L218,280C214.68,286.1,210.23,287.94,205.31,284.47ZM152.66,123.89c-1.92,15.44,2.72,29.64,11.53,41.83C179,186.17,194.6,206,210.46,225.64c6.35,7.85,13.94,5.86,16.77-4.15A122.69,122.69,0,0,0,231,198.33c1.62-20,2.76-40,4.15-60.77l6.58,7.86,12.08-16.57c-.69-.69-1.38-1.37-2.06-2.06-7,4.55-13.4,11.18-24.12,7.44,9.25-5.73,13.15-13.8,11.73-23.59-.78-5.3-3.43-10.33-4.91-14.56-5.56,5.36-9.4,10.5-14.49,13.64-8,5-12.36,11.37-11.71,20.71,1.38,20,3,39.93,4.55,59.9.24,3.06.55,6.12.94,10.43-2.82-1.17-4.56-1.44-5.68-2.43-11.54-10.17-23.49-20-34.18-31-4-4.13-7.56-11.43-6.94-16.78,1.6-13.87-3.52-25.59-7.83-37.79l-2.69-.5C155.12,116.16,153.16,119.93,152.66,123.89ZM283,151.68c-2.83,14.36,1.17,28.12,6.52,44.14-18.24-15.28-19.66-35.06-23.39-53.57l-22,6.43c2.14,15.93,5.15,32.31,6.35,48.83,1.21,16.77-3.66,32.49-12.67,47.13,25-11.46,49.05-24.46,63.73-48.56,5-8.14,4.92-19.31,6.85-27.71ZM143.27,336.47c-8.44-1.47-18.36-.88-23.26,8-4.79,8.74.23,17.05,5,24.24,7,10.56,17.78,13.43,29.83,11.68,21.16-3.09,38.28-14.24,54.68-30.24C187.44,345.53,165.47,340.34,143.27,336.47Zm62.08,43.24c21.84-20,43-40.72,64.81-60.77,19-17.49,39.54-33,66.2-36.08,12.75-1.48,25.81-.26,39.43,1-3.31-1.77-6.47-3.94-9.94-5.27-24.42-9.32-48.64-8.29-69.88,6.88-19.29,13.76-37,29.89-54.59,45.83-23.61,21.37-46.47,43.56-69.63,65.39C184.3,394.92,195.67,388.57,205.35,379.71ZM304.57,297a309.2,309.2,0,0,0-40.34,31.57c-19.71,18-38.38,37.08-59.23,57.39,6.44-2.91,11.8-4.2,15.7-7.31,17-13.52,34.38-26.68,50.05-41.63,27.8-26.51,60.67-41.81,98.79-49.5C346,281.38,324.15,284.39,304.57,297ZM269.65,48.21c-10.8-19.39-31.92-29-59.26-25.9C235.47,29.68,249.15,47,258.82,68c9.75,21.16,11.9,42.77.85,64.53C278.36,112.12,282.83,71.88,269.65,48.21ZM397.7,256.59c-2.74-.19-6.3-1.41-7.84-3.42-4-5.26-7.23-11.19-10.65-16.9-15-25.06-30-50.14-44.8-74.84L314,167.54c16.3,19.31,32.87,38.32,48.68,57.93,8.17,10.13,14.85,21.44,22.55,32,1.63,2.22,4.78,4.67,7.25,4.68,8.77.05,17.55-.91,26.33-1.49l-.13-3.89C411.71,256.74,404.68,257.06,397.7,256.59ZM243.63,22.35c22.86,8.78,35.52,28.51,36.16,55.34.49,20.41-3.71,39.5-14.32,57.64C268.71,132,273,129.1,275,125.1a127.93,127.93,0,0,0,12.58-75.19c-3.48-25.81-25.72-39-54.09-34.73-2.56.38-5.08,1.06-9.22,1.94C232,19.15,238,20.19,243.63,22.35Zm70.15,288.08c-35.74,15.29-55.54,50.48-88,69.8,25.35-4.72,44.87-25.92,72.88-24.55C297.53,337.7,302.64,323.13,313.78,310.43ZM245.44,51.13c-9.78-13.4-21.35-25.2-42.86-24.22,2.92,4.61,4.33,8,6.68,10.37,7.29,7.5,15,14.59,22.44,21.95C249.09,76.46,263,95.28,260,121.86,269.38,95.31,260.85,72.26,245.44,51.13Zm91.62,389.71A189.34,189.34,0,0,0,315.4,393.9c-7.37-11.65-21.69-13.24-35.33-13.63,17,10.65,31.6,23.44,40.06,41.94,8.91,19.48,6.9,38.25-5.57,57.71C333.66,471.51,342.26,458.47,337.06,440.84Zm-21.5,29.31c11-13.09,10.12-37.16-3.39-56.2-16.43-23.17-38.44-41-70.4-29.16C296.59,400.06,320.12,427.63,315.56,470.15Zm-111-433.7-2.93,1c1.84,6.25,2.53,13.19,5.79,18.59,5.21,8.61,11.85,16.42,18.4,24.14,10,11.86,20.53,23.35,31.5,35.75C256.6,77.63,225.61,60.37,204.57,36.45Zm93.3,322.82c-13.08-1.89-26.49,2.88-59,21.45,12.57-1.38,24-3.72,35.49-3.59s22.67,2.73,33.82,4.22Zm-101-285.22c-.18,4.88,2.37,9.86,3.92,15.53,7.81,1.71,20-6,23,10.49l3.22-2.65c-1.14-3.94-1.33-8.6-3.63-11.69-6.69-9-14.23-17.32-21.87-26.42C200,64.11,197.11,69,196.92,74.05Zm111.15,53.18-16.51-4.11c3,10.89,8.55,18.84,18,24.34,7.68-19.26.91-36.4-17.54-39.93Zm-28.4-2.09c-3,16.17,18.27,36.44,38.91,35.62C296.75,153.08,293.53,153.41,279.67,125.14Zm36.54,25.3,12.39,2.88c-3.87-8-6.92-14.3-10-20.59l-1.55.45C316.81,138.64,316.53,144.09,316.21,150.44Zm-74.9,146.32c.07,1.94,3.78,3.76,5.88,5.63,2.23-2.63,4.75-5.1,6.41-8.05.27-.48-3.3-3.1-6.69-6.18C244.24,292,241.23,294.42,241.31,296.76Zm56.58-149.41-14.56-30.42C280.62,124.66,288.69,141.67,297.89,147.35Zm-76.13,192c.22-1.45-3-3.42-4.75-5.16-1.86,1.84-4.91,3.49-5.24,5.57s2.13,4.53,4.35,8.66C218.88,344.26,221.36,342,221.76,339.35Zm10.29-9.28c-.49-2.38-3.55-4.23-5.5-6.3-1.61,2.06-4.33,4-4.49,6.2s2.42,4.26,4.73,7.88C229.38,334.23,232.41,331.8,232.05,330.07ZM210,282.87c2.07-.42,5.3-4,4.95-5.45a9.11,9.11,0,0,0-5.76-5.75c-2.38-.54-5.35,1.5-8.06,2.4L204,278.7C206,280.22,208.34,283.21,210,282.87Zm30.38-29.74c-.32,1.52,3.16,3.82,4.93,5.77,1.76-1.86,4.36-3.48,5-5.67.49-1.68-1.51-4.07-3.14-7.86C243.9,248.85,240.87,250.73,240.37,253.13Zm-9.14,22.08c-.23-2-3.17-3.78-4.92-5.65-1.79,2.17-4.74,4.2-5,6.54-.21,1.81,2.95,4,5.68,7.34C229.05,279.7,231.47,277.31,231.23,275.21Zm-14.58,46.58c-.56-2.35-3.54-4.12-5.48-6.14-1.57,2.05-4.22,4-4.38,6.17-.15,2,2.41,4.12,4.82,7.79C214.16,325.88,217.05,323.44,216.65,321.79Zm82.28-82.45c.19,2.07,3,3.9,4.71,5.83,1.86-2.1,4.87-4,5.23-6.36.27-1.78-2.81-4.07-5.49-7.56C301.2,235,298.74,237.27,298.93,239.34Zm3.55,35.37c2-.45,4.86-3.65,4.7-5.43-.17-1.94-3.31-4.91-5.28-5-1.81-.09-3.78,3-7,6C298.39,272.46,300.78,275.1,302.48,274.71Zm-102,42.07c-.34-2.39-3.21-4.42-5-6.61-1.74,1.89-4.63,3.63-4.91,5.72s2.13,4.43,4.23,8.25C197.63,320.72,200.76,318.51,200.52,316.78ZM273,275c2-.3,4.92-3.54,4.87-5.44s-3.11-5-5.11-5.23c-1.78-.2-3.92,2.82-7.23,5.49C268.93,272.35,271.2,275.28,273,275Zm-37.89,19c1.84,0,5-3.17,5.09-5s-2.7-5.36-4.55-5.59S231.4,286,228,288.31C231.14,291,233.12,294,235.08,294Zm.36-14.58c6.05-2,6.05-2,3.86-14.33-.24-.07-.54-.27-.7-.19-2,1-4,2.06-6,3.09Zm60-35.84c0-2-2.88-4-4.51-6-1.89,1.75-4.94,3.28-5.33,5.32s2.06,4.38,4.15,8.24C292.59,247.64,295.46,245.63,295.46,243.61Zm-97.24,93.67c.15,2.05,3,3.89,4.69,5.83,1.82-1.87,4.84-3.58,5.1-5.63s-2.37-4.31-4.82-8.24C200.68,333.06,198.07,335.27,198.22,337.28Zm32.16-32.92c.25,2.07,3.29,3.79,5.11,5.67,1.69-1.95,4.54-3.79,4.74-5.88s-2.43-4.19-4.9-7.95C232.82,300.09,230.14,302.4,230.38,304.36Zm-17.18,8.48c2.7-1.07,5-3.1,7.88-4.95l-6.1-4.72-13.29,12.26C206.93,314.31,210.24,314,213.2,312.84Zm8.35-10c2-.15,5.24-3.22,5.26-5.05,0-2-2.81-5.24-4.83-5.61-1.76-.32-4.11,2.61-7.54,5.08C217.65,299.9,219.72,302.94,221.55,302.81Zm34.39-57.07,6.68,4q2-4.6,4.07-9.19l-4.23-2.77Zm-65.42,92c2-.35,4.87-3.53,4.87-5.47s-3.1-5-5-5.19-3.91,2.85-7.2,5.54C186.51,335.11,188.8,338,190.52,337.74Zm93.54-56.16c-2.17-.66-5.11-2.53-6.37-1.74-4.66,2.91-4.16,6.72,1.56,12.1Zm26.12-16.15c.17,1.88,2.78,3.53,4.32,5.29,1.77-1.92,4.47-3.63,5-5.83.33-1.43-2.57-3.58-5-6.68C312.34,261.54,310,263.6,310.18,265.43ZM252.25,281c-.09-1.75-3-3.36-4.67-5-1.82,1.83-4.94,3.56-5.09,5.52s2.68,4.12,5.4,7.82C250.08,285.44,252.36,283.18,252.25,281ZM275.9,141.55q1,12.48,2,25l2.19-.61C278,157.86,282.77,149.13,275.9,141.55Zm-9,117.08c-.08-1.78-2.81-3.44-4.37-5.15-1.64,1.64-4.42,3.16-4.6,4.94s2.17,3.94,4.28,7.33C264.54,262.46,267,260.49,266.92,258.63Zm-19.81,57.43c1.71-1.88,4.35-3.57,4.78-5.71.26-1.29-2.75-4.4-4.55-4.62-1.59-.19-3.53,2.48-6.29,4.65Zm14.25-37.25-.15,2.4,8.38,5.93c1.16-2.42,2.31-4.84,3.47-7.25l-1.41-2.71Zm24.6-44.1c1.59-2,4.1-3.8,4.43-6,.19-1.29-3-4.3-4.71-4.33s-3.42,2.72-6.1,5.11Zm14,21.43c-.2-1.82-2.91-3.37-4.51-5-1.61,1.73-4.32,3.35-4.5,5.21s2.31,3.79,4.63,7.15C297.8,260,300.16,257.93,300,256.14ZM272.89,137.42l-2.43.12c-2.57,9.14,1.07,18,4,26.52Z"/><path class="cls-1" d="M158.61,333.82c3-5.77,6.14-9,5.86-11.93-.24-2.51-4.32-4.66-6.7-7-2.28,2.75-6,5.33-6.37,8.31C151.1,325.65,154.83,328.57,158.61,333.82Z"/><path class="cls-1" d="M181.18,291.3c4.66,3.53,7.51,7.31,9.84,7s5.78-4.33,6.15-7.07c.26-2-3.67-6.26-5.83-6.33C188.71,284.83,186,288.08,181.18,291.3Z"/><path class="cls-1" d="M167.53,301.15c3.09-5.23,6-8,5.8-10.44s-3.58-4.8-5.57-7.18c-2.24,2.44-5.76,4.63-6.3,7.4C161,293.11,164.29,296,167.53,301.15Z"/><path class="cls-1" d="M135,302.42c3.21-2.32,6.55-6.58,9.6-6.39,2.81.17,6.87,4.82,7.58,8.1,1.07,5-2.36,9.51-7.92,8.64-3.3-.51-6.1-4.18-9.13-6.43C135,305,135,303.73,135,302.42Zm9.25,7.21c1.93-.19,4.94-3.37,5-5.28s-2.94-5.16-4.85-5.36-4.07,2.71-7.45,5.26C140.19,306.85,142.35,309.8,144.2,309.63Z"/><path class="cls-1" d="M167.26,308.33c4.17,2.3,7.39,5.26,8.75,4.57a10,10,0,0,0,4.78-7.18c.08-1.54-4.17-4.69-6.27-4.53S170.65,304.79,167.26,308.33Z"/><path class="cls-1" d="M133.09,323.87c2.68,1,5.59,3.05,8,2.77,2.09-.26,5.4-3.47,4.92-4.72-.73-1.87-4.08-4.15-6.7-4.45-3.07-.34-6.55,1.26-9.85,2Z"/></svg>